<svg xmlns="http://www.w3.org/2000/svg" xmlns:xlink="http://www.w3.org/1999/xlink" width="241.048" height="33.468" viewBox="0 0 241.048 33.468">
  <defs>
    <linearGradient id="linear-gradient" y1="0.043" x2="0.937" y2="0.952" gradientUnits="objectBoundingBox">
      <stop offset="0" stop-color="#624eeb"/>
      <stop offset="1" stop-color="#25c1fd"/>
    </linearGradient>
  </defs>
  <g id="Group_38" data-name="Group 38" transform="translate(-1313 -561)">
    <g id="Group_37" data-name="Group 37">
      <path id="Path_18" data-name="Path 18" d="M1.44-8.032a8.461,8.461,0,0,1,.688-3.408A8.679,8.679,0,0,1,4-14.192a9.013,9.013,0,0,1,2.768-1.856,8.461,8.461,0,0,1,3.408-.688,8.461,8.461,0,0,1,3.408.688,8.815,8.815,0,0,1,2.752,1.856,8.815,8.815,0,0,1,1.856,2.752,8.461,8.461,0,0,1,.688,3.408V0H15.168V-.9A8.321,8.321,0,0,1,10.176.672,9.291,9.291,0,0,1,6.576,0,8.036,8.036,0,0,1,3.824-1.856a8.4,8.4,0,0,1-1.76-2.768A9.214,9.214,0,0,1,1.44-8.032Zm3.744,0a4.767,4.767,0,0,0,.4,1.936A5.128,5.128,0,0,0,6.656-4.512,5.128,5.128,0,0,0,8.24-3.44a4.767,4.767,0,0,0,1.936.4,5.125,5.125,0,0,0,1.936-.368A4.7,4.7,0,0,0,13.7-4.448a5.128,5.128,0,0,0,1.072-1.584,4.925,4.925,0,0,0,.4-2,4.767,4.767,0,0,0-.4-1.936A5.128,5.128,0,0,0,13.7-11.552a5.128,5.128,0,0,0-1.584-1.072,4.767,4.767,0,0,0-1.936-.4,4.767,4.767,0,0,0-1.936.4,5.128,5.128,0,0,0-1.584,1.072A5.128,5.128,0,0,0,5.584-9.968,4.767,4.767,0,0,0,5.184-8.032Zm18.688,0a4.767,4.767,0,0,0,.4,1.936,5.128,5.128,0,0,0,1.072,1.584A5.128,5.128,0,0,0,26.928-3.44a4.767,4.767,0,0,0,1.936.4A5.442,5.442,0,0,0,31.136-3.5,4.071,4.071,0,0,0,32.8-4.864h4.16a9.856,9.856,0,0,1-1.488,2.5A8.387,8.387,0,0,1,33.536-.64,8.077,8.077,0,0,1,31.3.352a9.28,9.28,0,0,1-2.432.32,8.461,8.461,0,0,1-3.408-.688,9.013,9.013,0,0,1-2.768-1.856,8.679,8.679,0,0,1-1.872-2.752,8.461,8.461,0,0,1-.688-3.408,8.461,8.461,0,0,1,.688-3.408,8.679,8.679,0,0,1,1.872-2.752,9.013,9.013,0,0,1,2.768-1.856,8.461,8.461,0,0,1,3.408-.688,9.678,9.678,0,0,1,2.384.3,7.915,7.915,0,0,1,2.272.976,8.7,8.7,0,0,1,1.968,1.712,9.184,9.184,0,0,1,1.5,2.512H32.8a3.981,3.981,0,0,0-1.728-1.376,5.81,5.81,0,0,0-2.208-.416,4.767,4.767,0,0,0-1.936.4,5.128,5.128,0,0,0-1.584,1.072,5.128,5.128,0,0,0-1.072,1.584A4.767,4.767,0,0,0,23.872-8.032Zm13.888,0a8.461,8.461,0,0,1,.688-3.408,8.679,8.679,0,0,1,1.872-2.752,9.013,9.013,0,0,1,2.768-1.856,8.461,8.461,0,0,1,3.408-.688,8.461,8.461,0,0,1,3.408.688,8.815,8.815,0,0,1,2.752,1.856,8.815,8.815,0,0,1,1.856,2.752A8.461,8.461,0,0,1,55.2-8.032V0H51.488V-.9A8.321,8.321,0,0,1,46.5.672,9.291,9.291,0,0,1,42.9,0a8.035,8.035,0,0,1-2.752-1.856,8.4,8.4,0,0,1-1.76-2.768A9.214,9.214,0,0,1,37.76-8.032Zm3.744,0A4.767,4.767,0,0,0,41.9-6.1a5.128,5.128,0,0,0,1.072,1.584A5.128,5.128,0,0,0,44.56-3.44a4.767,4.767,0,0,0,1.936.4,5.125,5.125,0,0,0,1.936-.368,4.7,4.7,0,0,0,1.584-1.04,5.128,5.128,0,0,0,1.072-1.584,4.925,4.925,0,0,0,.4-2,4.767,4.767,0,0,0-.4-1.936,5.128,5.128,0,0,0-1.072-1.584,5.128,5.128,0,0,0-1.584-1.072,4.767,4.767,0,0,0-1.936-.4,4.767,4.767,0,0,0-1.936.4,5.128,5.128,0,0,0-1.584,1.072A5.128,5.128,0,0,0,41.9-9.968,4.767,4.767,0,0,0,41.5-8.032Zm32.352,0a8.717,8.717,0,0,1-.672,3.44A8.466,8.466,0,0,1,71.328-1.84,8.784,8.784,0,0,1,68.56,0a8.635,8.635,0,0,1-3.408.672,8.461,8.461,0,0,1-3.408-.688,8.815,8.815,0,0,1-2.752-1.856,8.815,8.815,0,0,1-1.856-2.752,8.461,8.461,0,0,1-.688-3.408,8.461,8.461,0,0,1,.688-3.408,8.815,8.815,0,0,1,1.856-2.752,8.815,8.815,0,0,1,2.752-1.856,8.461,8.461,0,0,1,3.408-.688,7.372,7.372,0,0,1,2.768.56,7.225,7.225,0,0,1,2.224,1.328V-22.4h3.712Zm-3.712,0a4.767,4.767,0,0,0-.4-1.936,5.128,5.128,0,0,0-1.072-1.584,5.128,5.128,0,0,0-1.584-1.072,4.767,4.767,0,0,0-1.936-.4,4.767,4.767,0,0,0-1.936.4,5.128,5.128,0,0,0-1.584,1.072A5.128,5.128,0,0,0,60.56-9.968a4.767,4.767,0,0,0-.4,1.936,4.767,4.767,0,0,0,.4,1.936,5.128,5.128,0,0,0,1.072,1.584A5.128,5.128,0,0,0,63.216-3.44a4.767,4.767,0,0,0,1.936.4,4.767,4.767,0,0,0,1.936-.4,5.128,5.128,0,0,0,1.584-1.072A5.128,5.128,0,0,0,69.744-6.1,4.767,4.767,0,0,0,70.144-8.032Zm5.12,0a8.461,8.461,0,0,1,.688-3.408,8.68,8.68,0,0,1,1.872-2.752,9.013,9.013,0,0,1,2.768-1.856A8.461,8.461,0,0,1,84-16.736a8.461,8.461,0,0,1,3.408.688,8.815,8.815,0,0,1,2.752,1.856,8.815,8.815,0,0,1,1.856,2.752A8.461,8.461,0,0,1,92.7-8.032V0H88.992V-.9A8.321,8.321,0,0,1,84,.672,9.291,9.291,0,0,1,80.4,0a8.036,8.036,0,0,1-2.752-1.856,8.4,8.4,0,0,1-1.76-2.768A9.214,9.214,0,0,1,75.264-8.032Zm3.744,0a4.767,4.767,0,0,0,.4,1.936A5.128,5.128,0,0,0,80.48-4.512,5.128,5.128,0,0,0,82.064-3.44,4.767,4.767,0,0,0,84-3.04a5.125,5.125,0,0,0,1.936-.368,4.7,4.7,0,0,0,1.584-1.04,5.128,5.128,0,0,0,1.072-1.584,4.925,4.925,0,0,0,.4-2,4.767,4.767,0,0,0-.4-1.936,5.128,5.128,0,0,0-1.072-1.584,5.128,5.128,0,0,0-1.584-1.072,4.767,4.767,0,0,0-1.936-.4,4.767,4.767,0,0,0-1.936.4,5.128,5.128,0,0,0-1.584,1.072,5.128,5.128,0,0,0-1.072,1.584A4.767,4.767,0,0,0,79.008-8.032Z" transform="translate(1354 586)"/>
      <g id="Group_19" data-name="Group 19" transform="translate(1111 463)">
        <g id="Group_13" data-name="Group 13" transform="translate(202 98)">
          <path id="Path_6" data-name="Path 6" d="M16.734,33.468H0V16.734A16.738,16.738,0,0,1,32.153,10.22,16.729,16.729,0,0,1,16.734,33.468Z" transform="translate(0 0)" fill="url(#linear-gradient)"/>
        </g>
        <g id="Group_16" data-name="Group 16" transform="translate(207.884 109.114)">
          <g id="open-book" transform="translate(2.897 0)">
            <g id="Group_2" data-name="Group 2" transform="translate(0)">
              <g id="Group_1" data-name="Group 1">
                <path id="Exclusion_1" data-name="Exclusion 1" d="M15.221,12.06a.572.572,0,0,1-.127-.014,15.812,15.812,0,0,0-3.431-.4,10.758,10.758,0,0,0-2.549.287,5.114,5.114,0,0,1,2.2-1.188,7.975,7.975,0,0,1,2.058-.265,1.445,1.445,0,0,0,1.44-1.442V1.953h.41a.565.565,0,0,1,.565.565V11.5a.564.564,0,0,1-.564.565Zm-14.657,0h0a.568.568,0,0,1-.352-.124A.561.561,0,0,1,0,11.495V2.518a.565.565,0,0,1,.565-.565h.41V9.035a1.445,1.445,0,0,0,1.44,1.442,7.87,7.87,0,0,1,2.058.266,5.115,5.115,0,0,1,2.2,1.188,10.751,10.751,0,0,0-2.549-.287,15.809,15.809,0,0,0-3.431.4A.573.573,0,0,1,.564,12.06Zm6.89-.592h0A5.8,5.8,0,0,0,4.859,9.938,8.753,8.753,0,0,0,2.417,9.6a.567.567,0,0,1-.566-.565V.565a.563.563,0,0,1,.166-.4A.557.557,0,0,1,2.413,0C3.732,0,6.129.308,7.377,2.317a.541.541,0,0,1,.077.286v8.864Zm.877,0h0V2.6a.541.541,0,0,1,.078-.286C9.656.308,12.053,0,13.371,0a.564.564,0,0,1,.564.565v8.47a.567.567,0,0,1-.566.565,8.877,8.877,0,0,0-2.442.339,5.8,5.8,0,0,0-2.6,1.528Z" fill="#fff"/>
              </g>
            </g>
          </g>
          <g id="Group_3" data-name="Group 3" transform="translate(0 2.946)">
            <path id="Path_5" data-name="Path 5" d="M478.091,277.693s-6.789-8.485-8.431-6.333c-.711,1.264,2.307,2.488,5.4,3.972A28.705,28.705,0,0,1,478.091,277.693Z" transform="translate(-468.006 -271.01)" fill="#fff" opacity="0.291"/>
            <circle id="Ellipse_5" data-name="Ellipse 5" cx="0.966" cy="0.966" r="0.966" transform="translate(0 2.294)" fill="#f9ac00"/>
            <circle id="Ellipse_6" data-name="Ellipse 6" cx="0.322" cy="0.322" r="0.322" transform="translate(0.322 1.006)" fill="#01aeda"/>
          </g>
          <g id="Group_4" data-name="Group 4" transform="translate(11.695 2.946)">
            <path id="Path_5-2" data-name="Path 5" d="M469.555,277.693s6.789-8.485,8.43-6.333c.711,1.264-2.307,2.488-5.4,3.972A28.694,28.694,0,0,0,469.555,277.693Z" transform="translate(-469.555 -271.01)" fill="#fff" opacity="0.291"/>
            <circle id="Ellipse_5-2" data-name="Ellipse 5" cx="0.966" cy="0.966" r="0.966" transform="translate(8.152 2.294)" fill="#f9ac00"/>
            <circle id="Ellipse_6-2" data-name="Ellipse 6" cx="0.322" cy="0.322" r="0.322" transform="translate(9.118 1.006)" fill="#01aeda"/>
          </g>
        </g>
      </g>
      <path id="Path_17" data-name="Path 17" d="M0-18.56V-22.4H15.52v3.84H9.664V0H5.856V-18.56ZM16.928-22.4h7.04a10.133,10.133,0,0,1,3.152.464,6.6,6.6,0,0,1,2.416,1.36,6,6,0,0,1,1.536,2.24,8.135,8.135,0,0,1,.544,3.072A8.075,8.075,0,0,1,30.96-12a4.325,4.325,0,0,1-1.9,2.176,6.274,6.274,0,0,1,.832.432,3.009,3.009,0,0,1,.832.784,4.137,4.137,0,0,1,.624,1.36,8.105,8.105,0,0,1,.24,2.16V0h-3.84V-5.088a2.965,2.965,0,0,0-.3-1.424,2.565,2.565,0,0,0-.784-.9,3.131,3.131,0,0,0-1.1-.48,5.6,5.6,0,0,0-1.264-.144h-3.52V0h-3.84Zm10.944,7.1a3.053,3.053,0,0,0-1.12-2.624A4.486,4.486,0,0,0,24-18.752H20.768v7.008H24a4.328,4.328,0,0,0,2.864-.848A3.343,3.343,0,0,0,27.872-15.3Zm6.112-7.1H49.472v3.84H37.824v6.72h9.6v3.808h-9.6V-3.84H49.472V0H33.984Zm29.216,0h3.808V0H63.584L55.36-14.08V0H51.52V-22.4h3.456L63.2-8.32Zm6.816,0h7.808a10.389,10.389,0,0,1,4.368.928,11.424,11.424,0,0,1,3.536,2.5,11.881,11.881,0,0,1,2.384,3.664,11.253,11.253,0,0,1,.88,4.4,10.567,10.567,0,0,1-.88,4.3,11.006,11.006,0,0,1-2.384,3.472,10.9,10.9,0,0,1-3.536,2.3A11.415,11.415,0,0,1,77.824,0H70.016ZM77.824-3.84a7.681,7.681,0,0,0,2.864-.528A7.36,7.36,0,0,0,83.024-5.84a6.838,6.838,0,0,0,1.584-2.24,6.894,6.894,0,0,0,.576-2.832,7.5,7.5,0,0,0-.576-2.9,7.864,7.864,0,0,0-1.584-2.448,7.768,7.768,0,0,0-2.336-1.68,6.65,6.65,0,0,0-2.864-.624H73.856V-3.84Zm24.416-2.3a2.549,2.549,0,0,0-.432-1.488A3.913,3.913,0,0,0,100.672-8.7a8.432,8.432,0,0,0-1.616-.784l-1.872-.688q-1.024-.352-2.24-.848a10.787,10.787,0,0,1-2.256-1.248,7.252,7.252,0,0,1-1.744-1.776,4.187,4.187,0,0,1-.7-2.432,5.422,5.422,0,0,1,.64-2.56,6.948,6.948,0,0,1,1.712-2.112,8.464,8.464,0,0,1,2.48-1.424,8.316,8.316,0,0,1,2.944-.528,7.358,7.358,0,0,1,3.472.752,7.937,7.937,0,0,1,2.336,1.808,7.255,7.255,0,0,1,1.344,2.224,6.661,6.661,0,0,1,.464,1.968h-3.9a4.322,4.322,0,0,0-1.2-2.272,3.565,3.565,0,0,0-2.544-.832,4.424,4.424,0,0,0-2.816.832,2.437,2.437,0,0,0-1.056,1.952A1.614,1.614,0,0,0,94.56-15.5a4.228,4.228,0,0,0,1.088.8,8.639,8.639,0,0,0,1.392.576q.752.24,1.392.432,1.344.448,2.7.976a9.9,9.9,0,0,1,2.448,1.36,6.584,6.584,0,0,1,1.776,2.08,6.436,6.436,0,0,1,.688,3.136,6.294,6.294,0,0,1-.656,2.912,6.3,6.3,0,0,1-1.776,2.144A8.3,8.3,0,0,1,101.04.24,9.9,9.9,0,0,1,98.016.7,8.482,8.482,0,0,1,94.928.128a8.258,8.258,0,0,1-2.672-1.68,8.108,8.108,0,0,1-1.888-2.7,9.059,9.059,0,0,1-.7-3.68H93.5a5.937,5.937,0,0,0,.3,1.92,4.7,4.7,0,0,0,.88,1.568A4.261,4.261,0,0,0,96.1-3.376a4.3,4.3,0,0,0,1.888.4,5.289,5.289,0,0,0,3.088-.816A2.693,2.693,0,0,0,102.24-6.144Z" transform="translate(1448 586)" fill="#f9ac00"/>
    </g>
  </g>
</svg>
